<?xml version="1.0" encoding="UTF-8"?>
<svg id="Layer_2" data-name="Layer 2" xmlns="http://www.w3.org/2000/svg" viewBox="0 0 1545.33 97.34">
  <defs>
    <style>
      .cls-1 {
        fill: #dcfcff;
      }
    </style>
  </defs>
  <g id="objects">
    <path class="cls-1" d="M.42,44.93c.92,10.31,2.2,20.43,4.46,30.48,3.06,10.73,9.06,11.95,20.58,12.17,71.52,4.08,158.41,8.81,232.5,9.76,4.99-.05,9.69-.37,14.71-.77,19.38-1.78,44.7-1.66,62.86-1.16,4.45.12,8.79.33,13.18.48,25.96,1.08,57.87-4.82,82.66-2.97,6.57.57,12.56,1.37,19.2.78,5.47-.39,11.56-1.42,17.62-2.2,10.4-1.21,18.69-4.28,29.6-3.99,10.82-.05,23.64.81,33.12-1.92.19-.07.37-.15.54-.23,3.46.55,7.94.27,13.98-.85,2.69-.5,5.43-.9,8.19-1.23,61.34,1.73,129.18,3.37,188.8,3.64,4.97-.04,9.66-.23,14.68-.48,19.38-1.06,44.58-1.06,62.64-.83,4.42.06,8.73.16,13.1.23,25.8.54,57.84-2.88,82.43-1.91,6.52.3,12.45.74,19.08.39,5.47-.24,11.58-.84,17.65-1.29,2.99-.21,5.81-.5,8.57-.8,24.97-1.24,47.38,3.67,60.85,2.77,3.1,1.11,7.01,1.39,11.91,1.48,71.52,4.08,158.41,8.81,232.5,9.76,4.99-.05,9.69-.37,14.71-.77,19.38-1.78,44.7-1.66,62.86-1.16,4.45.12,8.79.33,13.18.48,25.96,1.08,57.87-4.82,82.66-2.97,6.57.57,12.56,1.37,19.2.78,5.47-.39,11.56-1.42,17.62-2.2,10.4-1.21,18.69-4.28,29.6-3.99,10.82-.05,23.64.81,33.12-1.92,1.53-.56,2.56-1.29,3.24-2.17,3.4-3.08,3.65-8.57,2.99-17.95-.95-13.59-.99-30.44-2.99-43.89-1-5.61-1.88-9.18-9.17-10.34-6.4-.68-13.48-.44-20.65.14-2.83,0-6.21.37-10.31,1.13-11.72,2.19-24.16,2.48-36.65,2.8-9.95.3-19.67,1.38-28.71,2.16-10.77.94-22.16,1.84-33.34,2.43-64.29-3.5-137.13-7.23-200.74-9.14-4.96-.08-9.67-.01-14.7.1-19.44.56-44.62-.08-62.64-.78-4.41-.17-8.71-.39-13.07-.57-25.73-1.2-58.01,1.4-82.5-.2-6.48-.47-12.37-1.06-19.03-.88-5.48.1-11.63.54-17.73.84-1.34.06-2.65.13-3.94.22-66.26-3.71-142.34-7.56-208.25-8.4-4.97.05-9.65.37-14.65.77-19.31,1.78-44.53,1.66-62.63,1.15-4.43-.12-8.75-.33-13.13-.48-25.86-1.07-57.65,4.81-82.35,2.96-6.55-.56-12.52-1.36-19.13-.78-5.45.39-11.52,1.42-17.56,2.19-10.37,1.21-18.62,4.26-29.49,3.97-8.22.04-17.59-.44-25.77.53-63.11-1.13-133.78-2.12-195.57-1.74-4.96.1-9.65.34-14.66.63-19.34,1.27-44.54,1.54-62.6,1.5-4.42-.01-8.74-.07-13.11-.09-25.81-.26-57.73,3.5-82.35,2.79-6.52-.23-12.47-.61-19.09-.19-5.46.3-11.55.96-17.6,1.48,0,0-.01,0-.02,0-4.42-.52-8.46-.77-13.57-.73h-.15c-5.58.04-12.12.44-18,.71C44.09,16.86,13.67,6.44,5.25,15.99,1.73,19.4,0,25.31,0,35.13c0,3.24.17,6.54.42,9.8Z"/>
  </g>
</svg>