<?xml version="1.0" encoding="UTF-8"?>
<svg id="Layer_2" data-name="Layer 2" xmlns="http://www.w3.org/2000/svg" viewBox="0 0 199.99 200">
  <defs>
    <style>
      .cls-1 {
        fill: #e9e9f4;
      }
    </style>
  </defs>
  <g id="Layer_2-2" data-name="Layer 2">
    <g id="Layer_1-2" data-name="Layer 1-2">
      <g>
        <path class="cls-1" d="M150.58,1.84c10.99,7.15,18.14,19.52,18.14,36.01,0,23.64-14.57,38.21-34.91,47,4.67,9.07,16.22,27.49,24.46,39.85,9.89,14.29,15.39,21.44,22.26,28.58,6.21,6.9,11.65,10.14,16.8,11.98,1.71-5.1,2.66-10.56,2.66-16.24V50.97c0-28.15-22.82-50.97-50.97-50.97h-1.55c1.06.58,2.1,1.19,3.1,1.84h.01Z"/>
        <path class="cls-1" d="M189.61,173.08c-20.61-1.1-32.16-7.15-44.53-25.01-9.62-13.47-19.51-30.51-27.76-43.98-4.67-7.7-9.35-10.99-23.64-10.99h-8.8v43.7c0,23.36,2.47,25.01,24.46,26.66v7.7H37.07v-7.7c22.54-1.65,25.01-3.3,25.01-26.66V26.31c0-21.59-1.89-23.93-19.09-25.68C18.63,4.46,0,25.54,0,50.97v98.06c0,28.15,22.82,50.97,50.97,50.97h98.06c19.36,0,36.2-10.8,44.83-26.7-1.4-.04-2.8-.1-4.25-.22Z"/>
        <path class="cls-1" d="M128.04,76.33c10.72-8.24,15.12-19.24,15.12-34.08,0-29.68-19.51-40.68-40.4-40.68-7.97,0-12.64,1.1-14.84,2.75-1.92,1.38-3.02,4.67-3.02,12.09v67.61h13.19c14.02,0,23.09-2.2,29.96-7.7h0Z"/>
      </g>
    </g>
  </g>
</svg>