<?xml version="1.0" encoding="UTF-8"?>
<svg id="Layer_2" data-name="Layer 2" xmlns="http://www.w3.org/2000/svg" viewBox="0 0 922 29.15">
  <defs>
    <style>
      .cls-1 {
        fill: #3f9;
      }
    </style>
  </defs>
  <g id="objects">
    <path class="cls-1" d="M8.97,18.19c116.55,1.43,233.1,2.86,349.64,4.29,115.95,1.42,231.91,2.84,347.86,4.27,65.41.8,130.82,1.6,196.23,2.41,6.5.08,15.03-1.9,18.42-8.14,3.13-5.75-2.7-9.98-8.09-10.05-116.55-1.43-233.1-2.86-349.64-4.29-115.95-1.42-231.91-2.84-347.86-4.27C150.12,1.61,84.71.8,19.3,0,12.8-.08,4.27,1.9.88,8.14c-3.13,5.75,2.7,9.98,8.09,10.05Z"/>
  </g>
</svg>