<?xml version="1.0" encoding="UTF-8"?>
<svg id="Layer_2" data-name="Layer 2" xmlns="http://www.w3.org/2000/svg" viewBox="0 0 894 281.2">
  <defs>
    <style>
      .cls-1 {
        fill: #1580ea;
      }

      .cls-2 {
        fill: #999;
      }
    </style>
  </defs>
  <g id="Layer_1-2" data-name="Layer 1">
    <g>
      <rect class="cls-2" y="253.49" width="894" height="2"/>
      <g>
        <path class="cls-1" d="M815.64,130.3c-14.91,11.22-54.61,28.34-65.53,28.34-15.88-13.39-15.19,4.75-20.52,18.01-10.52,12.68-1.05-12.69-10.48-10.04-8.72.97-8.59,33.94-28.64,41.32-43.15,11.44,24.19-47.18,17.71-75.12-12.13-44.81-65.64,56.96-49.58,69.22,3.21,6.17-15.25,17.36-17.72,18.45-3.1-6.34,20.06-28.36,5.9-30.99-7.65-.92-13.9,22.51-22.43,27.74-10.83,11.2-29.66,22.51-19.18-4.13-2.19-9.51,60.37-73.73,23.91-62.88-14.98,6.37-26.73,6.75-40.15,1.77,43.02-11.04,56.11-88.37,3.1-84.42-28.81,7.38-45.6,54.45-25.97,78.81,4.4,4.77-2.32,3.13-10.33,7.23-10.54,2.94-12.15,6.9-13.14-.15-1.05-5.91-6.43-29.06-15.05-17.56-2.07,4.19,7.79,22.55,4.72,26.27-31.31,11.03-70.28,31.85-45.9,66.71,42.98,61.9,66.47-6.44,60.21-52.69,0,0-.59-7.67-.59-7.67l15.35-5.76c24.68-12.5,25.08,8.93,56.82,2.07,2.8-.59,5.17-.88,5.31-.74.3.15-2.51,4.13-15.64,20.96-25.3,33.29-23.42,74.99,22.43,44.13,9.42,12.47,25.77-9.28,37.63-14.32,6.49,5.35,19.16,7.53,27.16,2.95,9.49-4.29,18.98-16.23,24.65-27.6,14.18,3.85,21.43-7.6,23.32-20.81,10.63,4.48,79.19-22.31,83.98-37.04-1.53-4.88-5.52-6.8-11.37-2.07ZM513.22,241.14c-27.47-21.12-38.38-45.42,12.55-64.64,7.03-2.06,9.02-6.89,9.74,1.62.21,19.12,2.31,72.09-22.28,63.02ZM604.43,78.94c28.64,19.71-.35,61.19-26.13,65.23-22.14-18.11-4.46-72.66,26.13-65.23ZM667.16,192.74c-7.55-6.95,28.99-71.04,29.81-54.91-2.01,11.89-16.43,41.17-29.81,54.91Z"/>
        <path class="cls-1" d="M358.05,21.65c-10.25-3.42-12.64,20.34-19.44,29.5-12.33,25.03-25.61,59.52-37.2,79.78,1.96-12.03-11.11-14.1-18.67-5.38-10.37-6.69-28.92-3.59-41.35-3.55,2.72-13.3,52.21-99.08,36.84-97.13-13.75,20.58-20.29,44.38-33.05,70.14-7.03,15.14-8.81,31.28-30.32,30.24C217.56,107.2,290.24.99,263.65,0c-51.61,32.65-82.16,97.8-121.12,142.86-25.66,8.31-52.14,20.16-73.99,34.81-8.59,6.27-29.96,21.37-17.03,29.08,11.87-21.57,41.23-34.98,64.13-45.48,41.09-20.01,10.47,4.12,4.39,23.07,3.23,22.78,24.32-33.13,31-35.88,16.22-5.63,37.4-9.65,50.63-12.55-9.39,27.76-57.35,124.22-40.66,145.29,7.92-25.52,13.68-61.04,26.25-88.53,12.43-22.11,12.66-63.67,41.41-61.1-2.83,6.25-24.81,46.42-6.12,31.45,3.25-8.26,7.5-14.91,15.08-20.19,15.48-13.99,15.93-.51,2.45,8.73-7.16,5.69-41.77,27.86-22.06,33.89,22.21-8.07,30.02-36.37,53.59-43.68-9.27,20.62,8.13,21.01,20.58,10.48-1.46,8.2-25.36,40.12-8.41,35.96,16.44-33.68,34.3-74.84,50.66-110.09,7.08-19.14,21.85-39.82,23.62-56.48ZM210.25,116.28c-4.72,19.81-37.08,13.14-53.5,22.04,31.85-45.87,65.93-97.3,105.9-129.7-13.68,34.83-36.49,72.94-52.4,107.66ZM235.84,134.36c.79-3.8,3.31-4.12,6.75-4.01-2.49,1.08-4.97,2.61-6.75,4.01ZM256.89,141.16c1.19-2.82,1.86-8.68-2.22-11.19,7.43.08,15.61.48,21.94.78-5.27,2.22-15.03,8.27-19.71,10.41ZM292.86,135c-1.72,4.07.9,5.24-1.45,7.53-3.22,2.48-11.34,9.89-14.47,8.17-.26-8.29,19.95-34.13,15.91-15.7Z"/>
        <path class="cls-1" d="M452.48,99.27c5.5,1.65,6.48-8.49.46-7.58-4.22.57-5.22,6.63-.46,7.58Z"/>
        <path class="cls-1" d="M493.33,104.51c-16.84,29.86.52,38.38,20.74,12.73.85,12.11,12.12,8.46,19.65,1.56,3.56-4.86,26.68-15.51,11.47-18.8-9.38,6.96-15.16,11.84-22.97,16.98,12.06-32.61-19-.78-27.97,7.39,1.73-8.98,9.47-21.07,13.21-29.63.34-19.8-22.45,6.81-27.63,11.94.48-8.27-7.63-6.29-9.95,1.77-10.4,9.38-19.05,18.56-28.64,24.81-1.56-8.58,14.7-23.44,4.61-26.05-71,63.69-3.47-30.51-70.81,19.4,1.3-11,65.95-124.42,43.67-112.57-24,42.58-35.97,100.49-75.26,128.55-1.32-6.88,17.32-34.76.53-27.39-6.32,6.73-18.24,22.74-23.77,27.38,1.33-5.26,3.93-15.58,8.71-18.65,6.99-1.57.15-11.14-5.03-6.96-6.21,6.37-20.45,33.39-6.07,36.36,7.37-1.87,13.69-11.13,18.45-16.47-3.54,22.55,17.23,12.19,25.61-.39-7.84,11.88.55,19.04,6.79,7.72,6.86-9.67,21.55-19.86,33.02-25.14-4.15,29.8,18.73,18.74,33.1,7.07-7.44,27.9,16.2,11.61,26.72.53-3.03,6.87-7.49,14.79,2.34,15.54,8.14-12.43,16.14-25.81,29.49-37.67Z"/>
      </g>
    </g>
  </g>
</svg>