<?xml version="1.0" encoding="UTF-8"?>
<svg id="Layer_2" data-name="Layer 2" xmlns="http://www.w3.org/2000/svg" viewBox="0 0 581.91 72.81">
  <defs>
    <style>
      .cls-1 {
        fill: #fff;
      }
    </style>
  </defs>
  <g id="Layer_1-2" data-name="Layer 1">
    <g>
      <path class="cls-1" d="M63.6,72.06c-1.18,0-2.46,0-3.64-.11-9.1-.54-13.49-3-18.2-9.85-3.64-5.14-7.28-11.67-10.39-16.92-1.93-3.11-3.64-4.39-8.89-4.39h-3.11v16.81c0,9.1.96,9.85,9.42,10.49v3.1H0v-3.1c8.57-.64,9.53-1.39,9.53-10.49V14.88c0-8.99-.86-9.53-9.1-10.17V1.61h27.09c8.14,0,13.38.96,17.45,3.64,4.28,2.78,7.17,7.6,7.17,14.03,0,9.31-5.78,14.88-13.6,18.31,1.82,3.32,6.21,10.49,9.42,15.31,3.85,5.78,6,8.57,8.57,11.35,2.78,3,5.14,4.18,7.5,4.92l-.43,2.89ZM24.09,37.26c5.25,0,8.78-.86,11.46-3,3.96-3.21,5.67-7.5,5.67-13.28,0-11.56-7.39-15.85-15.1-15.85-3,0-4.82.43-5.67,1.07-.75.64-1.07,1.82-1.07,4.6v26.45h4.71Z"/>
      <path class="cls-1" d="M134.75,54.18c-.64,3.75-2.78,13.71-3.75,17.02h-52.14v-3.1c9.64-.75,10.49-1.5,10.49-10.39V15.42c0-9.64-.86-9.96-9.1-10.71V1.61h48.18c.11,2.46.64,9.85.96,15.53l-3.21.54c-.96-4.39-2.14-6.96-3.64-9.21-1.5-2.25-4.39-3-11.78-3h-7.71c-3.43,0-3.64.32-3.64,3.53v24.09h9.64c9.53,0,10.17-.86,11.56-8.03h3.21v20.67h-3.21c-1.39-7.6-2.25-8.25-11.56-8.25h-9.64v19.81c0,5.14.64,7.5,2.57,8.78,2.03,1.29,5.78,1.29,10.81,1.29,7.71,0,10.92-.86,13.28-3.53,1.82-2.25,3.85-5.89,5.46-10.17l3.21.54Z"/>
      <path class="cls-1" d="M195.81,17.88c-.96-4.18-1.71-6.53-3.21-8.67-1.82-2.89-4.28-3.75-11.99-3.75h-7.6c-3.32,0-3.64.32-3.64,3.43v25.16h10.6c9.64,0,10.28-.96,11.56-7.82h3.21v20.67h-3.21c-1.28-7.28-1.93-8.46-11.56-8.46h-10.6v18.95c0,9.42.86,9.96,10.49,10.71v3.1h-29.87v-3.1c8.46-.64,9.32-1.29,9.32-10.71V15.31c0-9.32-.86-9.96-8.99-10.6V1.61h47.65c.11,3.43.64,10.49,1.07,15.85l-3.21.43Z"/>
      <path class="cls-1" d="M270.53,54.18c-.64,3.75-2.78,13.71-3.75,17.02h-52.14v-3.1c9.64-.75,10.49-1.5,10.49-10.39V15.42c0-9.64-.86-9.96-9.1-10.71V1.61h48.18c.11,2.46.64,9.85.96,15.53l-3.21.54c-.96-4.39-2.14-6.96-3.64-9.21-1.5-2.25-4.39-3-11.78-3h-7.71c-3.43,0-3.64.32-3.64,3.53v24.09h9.64c9.53,0,10.17-.86,11.56-8.03h3.21v20.67h-3.21c-1.39-7.6-2.25-8.25-11.56-8.25h-9.64v19.81c0,5.14.64,7.5,2.57,8.78,2.03,1.29,5.78,1.29,10.81,1.29,7.71,0,10.92-.86,13.28-3.53,1.82-2.25,3.86-5.89,5.46-10.17l3.21.54Z"/>
      <path class="cls-1" d="M349.27,72.06c-1.18,0-2.46,0-3.64-.11-9.1-.54-13.49-3-18.2-9.85-3.64-5.14-7.28-11.67-10.39-16.92-1.93-3.11-3.64-4.39-8.89-4.39h-3.11v16.81c0,9.1.96,9.85,9.42,10.49v3.1h-28.8v-3.1c8.57-.64,9.53-1.39,9.53-10.49V14.88c0-8.99-.86-9.53-9.1-10.17V1.61h27.09c8.14,0,13.38.96,17.45,3.64,4.28,2.78,7.17,7.6,7.17,14.03,0,9.31-5.78,14.88-13.6,18.31,1.82,3.32,6.21,10.49,9.42,15.31,3.85,5.78,6,8.57,8.57,11.35,2.78,3,5.14,4.18,7.49,4.92l-.43,2.89ZM309.76,37.26c5.25,0,8.78-.86,11.46-3,3.96-3.21,5.67-7.5,5.67-13.28,0-11.56-7.39-15.85-15.1-15.85-3,0-4.82.43-5.67,1.07-.75.64-1.07,1.82-1.07,4.6v26.45h4.71Z"/>
      <path class="cls-1" d="M407.35,71.2v-3.1c6.75-.86,7.6-1.82,6.1-6.1-1.29-3.96-3.32-9.53-5.57-15.63h-22.48c-1.61,4.5-3.11,8.89-4.6,13.28-2.14,6.53-1.29,7.6,6.75,8.46v3.1h-23.45v-3.1c6.85-.96,8.35-1.71,11.99-11.03L398.25,1.07l3.75-1.07c6.64,18.42,13.81,38.55,20.67,57.07,3.43,9.31,4.82,10.28,11.78,11.03v3.1h-27.09ZM397.18,14.99h-.32c-3.32,8.89-6.64,17.88-9.74,26.55h19.17l-9.1-26.55Z"/>
      <path class="cls-1" d="M524.27,4.71c-6,.32-8.46,1.71-8.99,6.42-.32,3.32-.64,8.14-.64,17.99v43.15h-3.64l-45.4-55.68h-.21v26.34c0,9.74.32,14.88.64,17.99.54,5.35,2.89,6.75,10.39,7.17v3.1h-25.59v-3.1c6.1-.43,8.78-1.82,9.32-6.96.32-3.32.75-8.46.75-18.2v-23.34c0-7.6-.21-8.46-2.14-10.92-2.14-2.68-4.5-3.53-9.42-3.96V1.61h16.49l44.01,52.46h.32v-24.95c0-9.85-.43-14.67-.75-17.77-.54-4.82-3-6.21-10.49-6.64V1.61h25.38v3.1Z"/>
      <path class="cls-1" d="M575.48,17.99c-1.82-6.75-4.92-14.24-14.13-14.24-7.82,0-11.56,5.67-11.56,11.56,0,7.5,4.93,11.13,13.49,15.53,8.89,4.5,18.63,9.64,18.63,21.41s-9.74,20.56-24.2,20.56c-4.28,0-7.82-.75-10.49-1.61-2.78-.86-4.39-1.71-5.57-2.25-.86-2.36-2.25-11.46-2.89-16.92l3.21-.86c1.82,6.64,6.85,17.67,17.77,17.67,7.82,0,12.42-4.92,12.42-12.53s-5.67-11.46-13.6-15.74c-7.71-4.07-17.88-9.42-17.88-21.2,0-10.6,8.46-19.38,22.48-19.38,5.25,0,10.07,1.39,13.71,2.46.43,3.85,1.07,8.14,1.93,14.99l-3.32.54Z"/>
    </g>
  </g>
</svg>