<?xml version="1.0" encoding="UTF-8"?>
<svg id="Layer_2" data-name="Layer 2" xmlns="http://www.w3.org/2000/svg" viewBox="0 0 754.72 188">
  <defs>
    <style>
      .cls-1 {
        fill: #feef38;
      }
    </style>
  </defs>
  <g id="objects">
    <path class="cls-1" d="M614.22,8c7.91-.18,17.24.32,25.6.59,50.01,2.76,92.04-19.96,104.99-.88,5.36,6.78,8.45,18.76,9.48,38.81.34,6.62.45,13.36.44,20.03-.21,21.08-.95,41.81-3.09,62.42-3.2,22.04-11.57,24.82-27.89,25.82-100.97,11.76-223.67,25.6-328.62,31.1-7.07.13-13.77-.29-20.93-.86-27.67-2.71-63.56-1.25-89.25.66-6.29.47-12.42,1.1-18.64,1.61-36.69,3.45-82.56-7.06-117.51-2.1-9.26,1.47-17.67,3.4-27.14,2.52-7.8-.54-16.55-2.35-25.22-3.65-14.88-1.98-26.95-7.83-42.39-6.72-15.35.42-33.43,2.79-47.17-2.34-7.48-3.6-7.26-11.04-6.51-22.66,2.24-27.76,6.52-57.81,11.42-85.47,6.81-36.29,8.47-49.93,39.64-42.8,16.85,3.91,34.53,3.91,52.25,3.95,14.14.13,28.03,1.87,40.93,3.02,24.34,2.21,50.86,4.18,74.84,3.74,23.94.09,29.61-5.47,53.93-5.73,95.1,8.48,225.45,2.84,318.54-18.29,7.42-1.68,13.71-2.58,22.08-2.77h.22Z"/>
  </g>
</svg>