<?xml version="1.0" encoding="UTF-8"?>
<svg id="Layer_2" data-name="Layer 2" xmlns="http://www.w3.org/2000/svg" viewBox="0 0 865.71 237.07">
  <defs>
    <style>
      .cls-1 {
        fill: #fffba7;
      }
    </style>
  </defs>
  <g id="objects">
    <path class="cls-1" d="M156.59,15.83c-9.01.24-19.58,1.45-29.07,2.31C70.86,24.78,21.48-2.64,8.09,23.28,2.47,32.54-.21,48.51.01,74.99c.08,8.74.41,17.64.89,26.42,1.7,27.77,3.99,55.03,7.86,82.06,5.17,28.85,14.89,32.01,33.51,32.35,115.63,9.44,256.11,20.31,375.83,21.26,8.05-.25,15.64-1.2,23.74-2.39,31.27-5.23,72.18-5.46,101.53-4.48,7.19.24,14.2.7,21.31,1,41.96,2.34,93.39-14.26,133.47-9.81,10.63,1.38,20.33,3.42,31.03,1.69,8.84-1.18,18.65-4.09,28.43-6.32,16.78-3.5,30.1-11.93,47.74-11.39,17.49-.37,38.21,1.66,53.47-5.91,8.25-5.19,7.49-14.98,5.82-30.24-4.47-36.45-11.43-75.78-18.93-111.93-10.27-47.4-13.1-65.29-48.04-54.02-18.89,6.16-38.99,7.22-59.14,8.34-16.07,1.02-31.74,4.14-46.34,6.44-27.53,4.38-57.55,8.56-84.84,9.41-27.21,1.56-34.04-5.43-61.73-4.31-107.55,16.88-256.15,17.27-363.48-4.98-8.55-1.77-15.77-2.58-25.3-2.33h-.25Z"/>
  </g>
</svg>