<?xml version="1.0" encoding="UTF-8"?>
<svg id="Layer_2" data-name="Layer 2" xmlns="http://www.w3.org/2000/svg" viewBox="0 0 754.72 151.57">
  <defs>
    <style>
      .cls-1 {
        fill: #feef38;
      }
    </style>
  </defs>
  <g id="objects">
    <path class="cls-1" d="M140.51,145.12c-7.91.15-17.24-.26-25.6-.47-50.01-2.22-92.04,16.1-104.99.71-5.36-5.47-8.45-15.13-9.48-31.29C.11,108.73,0,103.29,0,97.92c.21-17,.95-33.71,3.09-50.32,3.2-17.77,11.57-20.01,27.89-20.82C131.96,17.3,254.66,6.14,359.61,1.71c7.07-.11,13.77.23,20.93.7,27.67,2.18,63.56,1,89.25-.53,6.29-.38,12.42-.88,18.64-1.3,36.69-2.78,82.56,5.69,117.51,1.69,9.26-1.19,17.67-2.74,27.14-2.03,7.8.43,16.55,1.89,25.22,2.94,14.88,1.6,26.95,6.31,42.39,5.41,15.35-.33,33.43-2.25,47.17,1.88,7.48,2.9,7.26,8.9,6.51,18.27-2.24,22.38-6.52,46.6-11.42,68.9-6.81,29.25-8.47,40.26-39.64,34.51-16.85-3.15-34.53-3.15-52.25-3.18-14.14-.1-28.03-1.51-40.93-2.44-24.34-1.79-50.86-3.37-74.84-3.01-23.94-.08-29.61,4.41-53.93,4.62-95.1-6.84-225.45-2.29-318.54,14.75-7.42,1.36-13.71,2.08-22.08,2.23h-.22Z"/>
  </g>
</svg>