<?xml version="1.0" encoding="UTF-8"?>
<svg id="Layer_2" data-name="Layer 2" xmlns="http://www.w3.org/2000/svg" viewBox="0 0 2189.9 246.14">
  <defs>
    <style>
      .cls-1 {
        fill: #a1ffcb;
      }
    </style>
  </defs>
  <g id="objects">
    <path class="cls-1" d="M2189.3,132.51c-1.3-26.07-3.12-51.67-6.33-77.06-4.34-27.13-12.85-30.21-29.21-30.76-101.49-10.31-224.8-22.28-329.94-24.69-7.08.13-13.74.93-20.87,1.95-27.5,4.51-63.44,4.21-89.21,2.92-6.31-.32-12.47-.84-18.71-1.21-36.84-2.73-82.12,12.2-117.3,7.52-9.32-1.43-17.83-3.46-27.25-1.98-7.77.99-16.41,3.6-25.01,5.57-14.77,3.07-26.52,10.81-42.01,10.08-15.36.13-33.55-2.04-47,4.87-.28.18-.52.38-.77.57-4.9-1.4-11.26-.68-19.84,2.14-3.82,1.27-7.7,2.28-11.63,3.11-87.05-4.38-183.32-8.53-267.93-9.21-7.05.11-13.71.59-20.83,1.2-27.5,2.68-63.27,2.69-88.9,2.09-6.28-.15-12.39-.41-18.59-.59-36.61-1.36-82.08,7.29-116.98,4.82-9.25-.76-17.66-1.87-27.08-.98-7.76.6-16.43,2.11-25.04,3.27-4.24.52-8.24,1.25-12.16,2.03-35.43,3.14-67.23-9.29-86.35-7.01-4.4-2.81-9.94-3.51-16.91-3.75-101.49-10.31-224.8-22.28-329.94-24.69-7.07.13-13.74.93-20.87,1.95-27.5,4.51-63.44,4.21-89.21,2.92-6.31-.31-12.47-.84-18.71-1.21-36.84-2.73-82.12,12.2-117.3,7.52-9.32-1.43-17.83-3.46-27.25-1.98-7.77.99-16.41,3.6-25.01,5.57-14.77,3.07-26.52,10.81-42.01,10.08-15.36.13-33.55-2.04-47,4.87C-1.12,37.21-.52,46.4.84,60.74c3.68,34.24,9.51,71.22,15.85,105.22,8.69,44.59,11.05,61.4,41.82,51.27,16.63-5.54,34.29-6.28,52-7.07,14.12-.75,27.91-3.49,40.74-5.45,15.29-2.37,31.44-4.66,47.32-6.14,91.23,8.86,194.61,18.27,284.87,23.12,7.05.21,13.72.03,20.86-.25,27.59-1.43,63.33.2,88.9,1.96,6.26.43,12.36.98,18.55,1.44,36.51,3.02,82.32-3.54,117.08.51,9.2,1.18,17.56,2.67,27,2.22,7.78-.24,16.51-1.36,25.17-2.12,1.91-.15,3.76-.34,5.59-.56,94.03,9.38,201.99,19.11,295.52,21.25,7.05-.13,13.69-.93,20.79-1.94,27.4-4.49,63.2-4.19,88.88-2.91,6.29.31,12.42.83,18.64,1.2,36.7,2.72,81.81-12.15,116.86-7.49,9.29,1.43,17.76,3.45,27.14,1.97,7.74-.99,16.35-3.58,24.92-5.55,14.71-3.06,26.42-10.77,41.85-10.04,11.67-.1,24.97,1.12,36.57-1.33,89.56,2.85,189.85,5.37,277.54,4.4,7.04-.25,13.69-.85,20.8-1.6,27.44-3.2,63.21-3.89,88.84-3.78,6.28.03,12.4.17,18.6.24,36.63.66,81.92-8.85,116.87-7.05,9.26.59,17.7,1.53,27.09.47,7.75-.75,16.39-2.42,24.98-3.74,0,0,.02,0,.03,0,6.28,1.32,12,1.95,19.25,1.84h.22c7.91-.11,17.21-1.12,25.54-1.8,49.82-5.51,93,20.83,104.94-3.31,5-8.61,7.47-23.56,7.45-48.4,0-8.2-.24-16.55-.6-24.79Z"/>
  </g>
</svg>