<?xml version="1.0" encoding="UTF-8"?>
<svg id="Layer_2" data-name="Layer 2" xmlns="http://www.w3.org/2000/svg" viewBox="0 0 1356.21 42.88">
  <defs>
    <style>
      .cls-1 {
        fill: #a1ffcb;
      }
    </style>
  </defs>
  <g id="objects">
    <path class="cls-1" d="M13.2,26.76c171.44,2.1,342.87,4.2,514.31,6.31,170.56,2.09,341.12,4.18,511.68,6.27,96.21,1.18,192.43,2.36,288.64,3.54,9.55.12,22.11-2.8,27.09-11.97,4.6-8.46-3.97-14.69-11.91-14.78-171.44-2.1-342.87-4.2-514.31-6.31-170.56-2.09-341.12-4.18-511.68-6.27C220.81,2.36,124.6,1.18,28.39,0,18.83-.11,6.28,2.8,1.29,11.98c-4.6,8.46,3.97,14.69,11.91,14.78Z"/>
  </g>
</svg>