<?xml version="1.0" encoding="UTF-8"?>
<svg id="Layer_2" data-name="Layer 2" xmlns="http://www.w3.org/2000/svg" viewBox="0 0 768.44 241.7">
  <defs>
    <style>
      .cls-1 {
        fill: #1547ff;
      }

      .cls-2 {
        fill: #999;
      }
    </style>
  </defs>
  <g id="Layer_1-2" data-name="Layer 1">
    <g>
      <rect class="cls-2" y="217.89" width="768.44" height="1.72"/>
      <g>
        <path class="cls-1" d="M701.08,112c-12.81,9.64-46.94,24.36-56.33,24.36-13.65-11.51-13.06,4.08-17.63,15.48-9.04,10.9-.9-10.91-9.01-8.63-7.49.84-7.39,29.17-24.61,35.52-37.09,9.83,20.79-40.55,15.22-64.57-10.43-38.51-56.42,48.96-42.62,59.5,2.76,5.3-13.11,14.92-15.23,15.86-2.67-5.45,17.24-24.38,5.07-26.64-6.57-.79-11.95,19.35-19.28,23.85-9.31,9.63-25.49,19.35-16.49-3.55-1.88-8.17,51.89-63.37,20.55-54.04-12.88,5.48-22.98,5.8-34.51,1.52,36.98-9.49,48.23-75.96,2.66-72.56-24.76,6.34-39.2,46.8-22.33,67.74,3.78,4.1-2,2.69-8.88,6.22-9.06,2.53-10.45,5.93-11.29-.13-.9-5.08-5.53-24.98-12.94-15.1-1.78,3.6,6.7,19.39,4.06,22.58-26.91,9.48-60.41,27.38-39.45,57.34,36.95,53.21,57.13-5.54,51.76-45.29,0,0-.5-6.6-.5-6.6l13.19-4.95c21.21-10.75,21.55,7.68,48.84,1.77,2.41-.51,4.44-.76,4.57-.63.25.13-2.16,3.55-13.45,18.01-21.74,28.61-20.13,64.46,19.28,37.93,8.1,10.72,22.15-7.98,32.35-12.31,5.58,4.6,16.47,6.47,23.34,2.54,8.15-3.69,16.31-13.95,21.19-23.72,12.19,3.31,18.42-6.54,20.04-17.89,9.13,3.85,68.07-19.17,72.19-31.84-1.31-4.19-4.74-5.84-9.77-1.78ZM441.14,207.28c-23.61-18.15-32.99-39.04,10.78-55.56,6.04-1.77,7.76-5.92,8.37,1.39.18,16.44,1.98,61.96-19.15,54.17ZM519.54,67.85c24.62,16.94-.3,52.59-22.46,56.07-19.03-15.57-3.84-62.45,22.46-56.07ZM573.46,165.66c-6.49-5.97,24.92-61.06,25.62-47.19-1.73,10.22-14.12,35.38-25.62,47.19Z"/>
        <path class="cls-1" d="M307.76,18.61c-8.81-2.94-10.86,17.48-16.71,25.36-10.6,21.52-22.02,51.16-31.97,68.57,1.69-10.34-9.55-12.12-16.05-4.62-8.91-5.75-24.86-3.08-35.54-3.05,2.34-11.44,44.88-85.16,31.67-83.49-11.82,17.69-17.44,38.14-28.41,60.29-6.05,13.01-7.57,26.89-26.06,25.99C187.01,92.14,249.47.85,226.62,0c-44.36,28.07-70.62,84.07-104.11,122.79-22.06,7.15-44.82,17.32-63.6,29.92-7.39,5.39-25.75,18.37-14.64,24.99,10.2-18.54,35.44-30.07,55.12-39.09,35.32-17.2,9,3.54,3.77,19.83,2.77,19.58,20.91-28.48,26.64-30.84,13.95-4.84,32.14-8.3,43.52-10.79-8.08,23.86-49.29,106.77-34.95,124.89,6.81-21.94,11.76-52.47,22.56-76.09,10.69-19.01,10.88-54.73,35.6-52.52-2.43,5.37-21.33,39.9-5.26,27.04,2.79-7.1,6.44-12.82,12.96-17.35,13.3-12.02,13.7-.44,2.11,7.5-6.16,4.89-35.91,23.94-18.96,29.13,19.09-6.93,25.8-31.26,46.06-37.54-7.97,17.73,6.99,18.06,17.69,9.01-1.26,7.05-21.8,34.48-7.23,30.91,14.13-28.95,29.48-64.33,43.55-94.63,6.09-16.45,18.78-34.23,20.3-48.55ZM180.72,99.95c-4.06,17.03-31.88,11.3-45.98,18.94,27.38-39.43,56.67-83.63,91.02-111.48-11.76,29.94-31.37,62.7-45.04,92.54ZM202.71,115.49c.68-3.26,2.85-3.54,5.8-3.45-2.14.92-4.27,2.24-5.8,3.45ZM220.81,121.34c1.02-2.42,1.6-7.46-1.91-9.62,6.39.07,13.42.41,18.86.67-4.53,1.91-12.92,7.11-16.94,8.95ZM251.72,116.04c-1.48,3.5.77,4.5-1.24,6.47-2.77,2.13-9.75,8.5-12.44,7.02-.22-7.13,17.15-29.34,13.68-13.49Z"/>
        <path class="cls-1" d="M388.93,85.33c4.73,1.42,5.57-7.3.39-6.52-3.63.49-4.49,5.7-.39,6.52Z"/>
        <path class="cls-1" d="M424.04,89.83c-14.47,25.67.45,32.99,17.82,10.94.73,10.41,10.42,7.28,16.89,1.34,3.06-4.18,22.93-13.33,9.86-16.16-8.06,5.99-13.03,10.18-19.74,14.59,10.37-28.03-16.33-.67-24.04,6.35,1.49-7.72,8.14-18.11,11.35-25.47.3-17.02-19.3,5.85-23.75,10.26.41-7.11-6.56-5.41-8.55,1.52-8.94,8.07-16.37,15.95-24.61,21.33-1.35-7.37,12.63-20.14,3.96-22.39-61.02,54.75-2.98-26.23-60.87,16.67,1.11-9.45,56.69-106.94,37.54-96.76-20.63,36.6-30.92,86.38-64.69,110.5-1.13-5.91,14.88-29.88.46-23.54-5.43,5.79-15.68,19.54-20.43,23.53,1.14-4.52,3.37-13.39,7.48-16.03,6.01-1.35.13-9.57-4.33-5.98-5.34,5.48-17.58,28.7-5.22,31.25,6.33-1.61,11.77-9.56,15.86-14.16-3.04,19.38,14.81,10.48,22.01-.34-6.74,10.21.47,16.36,5.84,6.64,5.89-8.32,18.52-17.07,28.38-21.61-3.57,25.62,16.1,16.11,28.45,6.08-6.39,23.98,13.93,9.98,22.96.46-2.6,5.9-6.44,12.71,2.01,13.35,7-10.68,13.87-22.19,25.34-32.38Z"/>
        <path class="cls-1" d="M717.02,112.4c8.37,2.51,9.85-12.91.7-11.53-6.42.86-7.94,10.08-.7,11.53Z"/>
      </g>
    </g>
  </g>
</svg>