<?xml version="1.0" encoding="UTF-8"?>
<svg id="Layer_2" data-name="Layer 2" xmlns="http://www.w3.org/2000/svg" viewBox="0 0 1081.98 120.54">
  <defs>
    <style>
      .cls-1 {
        fill: #fff;
      }
    </style>
  </defs>
  <g id="Layer_1-2" data-name="Layer 1">
    <g>
      <path class="cls-1" d="M104.58,119.3c-2.13,0-4.08,0-6.2-.18-13.29-.71-20.74-4.61-28.72-16.13-6.2-8.69-12.59-19.68-17.9-28.36-3.01-4.96-6.03-7.09-15.24-7.09h-5.67v28.18c0,15.07,1.6,16.13,15.78,17.19v4.96H0v-4.96c14.54-1.06,16.13-2.13,16.13-17.19V24.46c0-15.07-1.42-15.6-15.24-16.84V2.66h43.96c12.94,0,21.63,1.59,28.36,6.03,7.09,4.61,11.7,12.59,11.7,23.22,0,15.24-9.4,24.64-22.51,30.31,3.01,5.85,10.46,17.73,15.78,25.7,6.38,9.22,9.93,13.83,14.36,18.43,4.79,5.32,8.86,7.27,12.76,8.33l-.71,4.61ZM39.35,61.69c9.04,0,14.89-1.42,19.32-4.96,6.91-5.32,9.75-12.41,9.75-21.98,0-19.14-12.59-26.23-26.06-26.23-5.14,0-8.15.71-9.57,1.77-1.24.89-1.95,3.01-1.95,7.8v43.61h8.51Z"/>
      <path class="cls-1" d="M221.63,89.87c-1.06,5.85-4.61,22.51-6.2,28.01h-85.44v-4.96c16.13-1.24,17.55-2.66,17.55-17.02V25.35c0-15.95-1.42-16.49-15.24-17.73V2.66h79.06c0,4.43.89,16.49,1.42,25.53l-5.14.89c-1.6-7.45-3.37-11.34-5.67-15.25-2.48-3.72-7.27-4.96-20.03-4.96h-13.47c-5.5,0-5.85.35-5.85,5.67v40.24h16.66c15.95,0,16.84-1.42,19.14-13.29h5.14v34.03h-5.14c-2.3-12.76-3.55-13.83-18.97-13.83h-16.84v33.5c0,8.33,1.06,12.05,4.25,14.36,3.37,2.13,9.57,2.3,18.44,2.3,13.47,0,18.44-1.42,22.33-6.03,3.01-3.54,6.38-9.57,8.69-16.66l5.32.71Z"/>
      <path class="cls-1" d="M322.21,29.43c-1.42-7.09-2.48-10.46-4.96-14.18-2.84-4.96-6.74-6.38-20.21-6.38h-13.47c-5.14,0-5.67.35-5.67,5.5v42.19h18.26c16.13,0,16.84-1.6,19.14-12.94h4.96v34.03h-4.96c-2.3-12.05-3.01-14.18-19.14-14.18h-18.26v32.08c0,15.24,1.42,16.31,17.55,17.37v4.96h-48.22v-4.96c14.18-1.06,15.6-2.13,15.6-17.37V24.99c0-15.42-1.42-16.31-15.07-17.37V2.66h78c0,6.38.89,17.73,1.77,26.06l-5.32.71Z"/>
      <path class="cls-1" d="M445.31,89.87c-1.06,5.85-4.61,22.51-6.2,28.01h-85.44v-4.96c16.13-1.24,17.55-2.66,17.55-17.02V25.35c0-15.95-1.42-16.49-15.24-17.73V2.66h79.06c0,4.43.89,16.49,1.42,25.53l-5.14.89c-1.6-7.45-3.37-11.34-5.67-15.25-2.48-3.72-7.27-4.96-20.03-4.96h-13.47c-5.5,0-5.85.35-5.85,5.67v40.24h16.66c15.95,0,16.84-1.42,19.14-13.29h5.14v34.03h-5.14c-2.3-12.76-3.55-13.83-18.97-13.83h-16.84v33.5c0,8.33,1.06,12.05,4.25,14.36,3.37,2.13,9.57,2.3,18.44,2.3,13.47,0,18.44-1.42,22.33-6.03,3.01-3.54,6.38-9.57,8.69-16.66l5.32.71Z"/>
      <path class="cls-1" d="M575.26,119.3c-2.13,0-4.08,0-6.2-.18-13.29-.71-20.74-4.61-28.72-16.13-6.2-8.69-12.59-19.68-17.9-28.36-3.01-4.96-6.03-7.09-15.24-7.09h-5.67v28.18c0,15.07,1.6,16.13,15.78,17.19v4.96h-46.62v-4.96c14.54-1.06,16.13-2.13,16.13-17.19V24.46c0-15.07-1.42-15.6-15.24-16.84V2.66h43.96c12.94,0,21.63,1.59,28.36,6.03,7.09,4.61,11.7,12.59,11.7,23.22,0,15.24-9.4,24.64-22.51,30.31,3.01,5.85,10.46,17.73,15.78,25.7,6.38,9.22,9.93,13.83,14.36,18.43,4.79,5.32,8.86,7.27,12.76,8.33l-.71,4.61ZM510.03,61.69c9.04,0,14.89-1.42,19.32-4.96,6.91-5.32,9.75-12.41,9.75-21.98,0-19.14-12.59-26.23-26.06-26.23-5.14,0-8.15.71-9.57,1.77-1.24.89-1.95,3.01-1.95,7.8v43.61h8.51Z"/>
      <path class="cls-1" d="M692.31,89.87c-1.06,5.85-4.61,22.51-6.2,28.01h-85.44v-4.96c16.13-1.24,17.55-2.66,17.55-17.02V25.35c0-15.95-1.42-16.49-15.24-17.73V2.66h79.06c0,4.43.89,16.49,1.42,25.53l-5.14.89c-1.6-7.45-3.37-11.34-5.67-15.25-2.48-3.72-7.27-4.96-20.03-4.96h-13.47c-5.5,0-5.85.35-5.85,5.67v40.24h16.66c15.95,0,16.84-1.42,19.14-13.29h5.14v34.03h-5.14c-2.3-12.76-3.55-13.83-18.97-13.83h-16.84v33.5c0,8.33,1.06,12.05,4.25,14.36,3.37,2.13,9.57,2.3,18.44,2.3,13.47,0,18.44-1.42,22.33-6.03,3.01-3.54,6.38-9.57,8.69-16.66l5.32.71Z"/>
      <path class="cls-1" d="M838.75,7.62c-9.93.53-14.18,2.84-14.89,10.64-.71,5.32-1.06,13.29-1.06,29.78v71.44h-5.49l-75.51-92.89h-.35v44.49c0,16.31.53,24.82,1.06,29.96.89,9.04,4.96,11.17,17.02,11.88v4.96h-42.01v-4.96c10.28-.53,14.71-2.84,15.6-11.52.53-5.5,1.06-14,1.06-30.31v-39c0-12.94-.35-13.65-3.55-17.9-3.54-4.43-7.44-5.85-15.78-6.56V2.66h26.23l73.92,88.99h.53v-43.61c0-16.31-.71-24.46-1.24-29.43-.89-7.98-5.14-10.28-17.37-10.99V2.66h41.83v4.96Z"/>
      <path class="cls-1" d="M967.38,88.63c-2.48,8.15-6.91,21.27-10.1,27.12-4.96,1.24-19.85,4.79-32.62,4.79-44.14,0-63.46-30.49-63.46-58.67,0-37.22,28.72-61.86,68.25-61.86,14.36,0,26.41,3.9,31.38,4.79,1.42,10.1,2.48,17.19,3.54,26.77l-5.32,1.24c-4.61-18.79-15.24-26.41-34.39-26.41-29.6,0-45.38,24.99-45.38,51.94,0,33.15,19.5,55.84,46.44,55.84,18.08,0,27.65-9.75,36.52-27.48l5.14,1.95Z"/>
      <path class="cls-1" d="M1081.98,89.87c-1.06,5.85-4.61,22.51-6.21,28.01h-85.44v-4.96c16.13-1.24,17.55-2.66,17.55-17.02V25.35c0-15.95-1.42-16.49-15.24-17.73V2.66h79.06c0,4.43.89,16.49,1.42,25.53l-5.14.89c-1.6-7.45-3.37-11.34-5.67-15.25-2.48-3.72-7.27-4.96-20.03-4.96h-13.47c-5.5,0-5.85.35-5.85,5.67v40.24h16.66c15.95,0,16.84-1.42,19.14-13.29h5.14v34.03h-5.14c-2.3-12.76-3.55-13.83-18.97-13.83h-16.84v33.5c0,8.33,1.06,12.05,4.25,14.36,3.37,2.13,9.57,2.3,18.44,2.3,13.47,0,18.43-1.42,22.33-6.03,3.01-3.54,6.38-9.57,8.69-16.66l5.32.71Z"/>
    </g>
  </g>
</svg>