<?xml version="1.0" encoding="UTF-8"?>
<svg id="Layer_2" data-name="Layer 2" xmlns="http://www.w3.org/2000/svg" viewBox="0 0 760.29 208.2">
  <defs>
    <style>
      .cls-1 {
        fill: #e82b23;
      }
    </style>
  </defs>
  <g id="objects">
    <path class="cls-1" d="M622.76,194.3c7.91-.21,17.19-1.28,25.53-2.03,49.77-5.83,93.13,18.25,104.89-4.51,4.94-8.13,7.29-22.16,7.09-45.41-.07-7.68-.36-15.49-.78-23.2-1.5-24.39-3.51-48.33-6.9-72.06-4.54-25.34-13.07-28.11-29.43-28.41C621.62,10.38,498.24.84,393.11,0c-7.07.22-13.73,1.06-20.85,2.1-27.46,4.59-63.39,4.79-89.17,3.94-6.31-.21-12.47-.62-18.71-.88-36.85-2.06-82.02,12.52-117.22,8.62-9.33-1.21-17.85-3-27.26-1.49-7.76,1.03-16.38,3.59-24.96,5.55-14.74,3.07-26.43,10.48-41.92,10-15.36.33-33.55-1.46-46.96,5.19C-1.19,37.59-.52,46.19.94,59.6c3.93,32.01,10.04,66.55,16.63,98.3,9.02,41.63,11.5,57.34,42.19,47.44,16.59-5.41,34.24-6.34,51.94-7.32,14.11-.89,27.88-3.64,40.69-5.65,24.17-3.85,50.54-7.51,74.51-8.27,23.9-1.37,29.9,4.77,54.21,3.79,94.45-14.83,224.96-15.17,319.21,4.38,7.51,1.56,13.85,2.27,22.22,2.04h.22Z"/>
  </g>
</svg>