<?xml version="1.0" encoding="UTF-8"?>
<svg id="Layer_2" data-name="Layer 2" xmlns="http://www.w3.org/2000/svg" viewBox="0 0 973.56 70.1">
  <defs>
    <style>
      .cls-1 {
        fill: #3ff;
      }
    </style>
  </defs>
  <g id="objects">
    <path class="cls-1" d="M29.02,49.49c-1.73-5.03-.53-10.24,2.92-13.34-.01.04.57-.41.95-.7.56.11,1.12.24,1.08.23,7.33,1.46,13.91,7.09,19.55,11.68,6.29,5.11,12.33,10.64,19.32,14.81,33.34,19.88,71.91-1.9,101.69-18.23,15.77-8.65,25.11-13.16,42.54-13.94,20.26-.9,40.85,1.72,61.04,3.17,42.52,3.05,85.13,7.4,127.73,8.98,22.12.82,44.18-.17,65.94-4.48,19.49-3.86,36.94-9.57,56.41-10.98,18.48-1.34,34.92,4.25,51.73,11.27,16.9,7.06,33.7,14.09,52.36,13.78,21.03-.36,40.14-9.16,56.87-21.36,6.91-5.04,13.59-10.68,21.07-14.87,1.43-.8,3.79-1.97,4.78-2.39,2.07-.87,2.08-.96,3.51-1.14-.77.1-2.03.11.69-.04-.91.05-.76-.13.98.03,1.08.1,2.73.38,4.02.73,13.12,3.53,20.64,17.18,28.18,27.33,9.05,12.17,19.38,20.78,35.33,20.67,20.54-.14,37.85-10.67,53.36-23.04,5.83-4.65,11.53-9.56,17.93-13.43,2.04-1.23.86-.48.41-.24.68-.37,1.38-.72,2.08-1.06.59-.29,1.18-.56,1.77-.83.12-.05.23-.1.31-.13.72-.26,1.45-.53,2.17-.8.05-.02.08-.03.13-.05.01,0,.02,0,.03,0,.74-.15,1.52-.35,2.23-.6.05-.02.08-.03.12-.04.02,0,.03,0,.05,0,1.22-.21,2.43-.42,3.65-.61-.07.06,3.29-.25,3.77-.28.14,0,.92-.03,1.39-.05.47,0,1.24,0,1.38,0,1.94.06,3.88.16,5.81.35,5.82.55,12.16,2.11,18.05,4.2,12.4,4.4,23.77,12.22,32.4,22.15,4.36,5.01,7.8,10.68,10.52,16.74,3.23,7.19,30.54-2.1,28.1-7.53-12.04-26.79-38.45-43.09-66.92-47.05-16.98-2.36-34.5.07-50.61,5.72-16.44,5.77-28.74,16.5-42.34,26.89-3.07,2.34-6.2,4.65-9.53,6.62-.18.09-1.14.63-1.13.63-.3.16-.61.31-.92.46-.25-.05-.55-.12-.95-.19-1.45-.26-3-.72-4.36-1.31-2.96-1.29-5.67-3.38-8.04-5.53-10.18-9.25-15.84-22.38-26-31.66-15.37-14.04-38.15-11.09-56.21-4.42-9.92,3.66-19.08,8.95-27.63,15.14-7.49,5.43-14.7,11.57-22.81,16.07-1.31.73-2.71,1.43-4.09,2.03,1.03-.45-1.63.41-2.21.66-.34.08-.65.14-.79.16-.1.01-.17.02-.25.04-.12,0-.33,0-.67.03-2,.11-3.55.04-5.7-.15-8.32-.75-16.47-3.65-24.22-6.63-17.96-6.91-34.99-15.48-54.34-17.82-22.07-2.67-44.37,2-65.8,6.84-19.2,4.33-38.12,8.31-58.71,8.52-21.39.22-42.81-1.9-64.12-3.48-22.22-1.64-44.43-3.28-66.65-4.89-21.59-1.56-43.28-3.81-64.93-4.16-23.2-.38-45.57,3.1-66.91,12.45-16.15,7.08-30.82,17.03-46.89,24.25-.11.05-.65.27-1.01.42-.74.29-1.48.59-2.22.87-.78.29-1.55.56-2.34.83-.18.06-.34.11-.44.13.08-.02-1.35.34-2.12.54-.48.09-1.05.21-1.22.24-.28.05-.45.08-.54.11-.16,0-.32.02-.52.03-.34.02-2.58.1-2.46.12-6.48-.07-14.01-3.11-19.94-7-13.44-8.83-24.88-23.91-41.52-26.76-10.24-1.75-20.96.02-30.69,3.41-7.36,2.57-15.21,6.42-20.22,12.58C.44,45.03-1.18,50.9.92,57.02c2.39,6.97,30.24-1.29,28.1-7.53ZM863.17,22.14c-1.29.59-.59.26,0,0h0ZM803.16,48.78c.2-.05.4-.09.59-.15-.24.08-.43.12-.59.15ZM124.26,56.68c1.36-.47.65-.22,0,0h0ZM32.33,35.44s0,0,0,0c0,0,0,0,0,0,.04-.03.08-.05.13-.08.1.02.2.04.3.06-.49.35-2.05,1.04-.43.02ZM32.45,35.36c-.05.03-.1.05-.15.07-.06-.02-.1-.03-.15-.04.05-.01.12-.03.2-.05.03,0,.07.01.1.02ZM32.19,35.31s-.09.03-.13.05c-.42-.13-.24-.12.13-.05ZM32.04,35.36c-.18.07-.19.09.1.03.05.01.1.03.15.04-.8.29-1.71-.43-.25-.07Z"/>
  </g>
</svg>