<?xml version="1.0" encoding="UTF-8"?>
<svg id="Layer_2" data-name="Layer 2" xmlns="http://www.w3.org/2000/svg" viewBox="0 0 890.11 252.96">
  <defs>
    <style>
      .cls-1 {
        fill: #f2e111;
      }
    </style>
  </defs>
  <g id="objects">
    <path class="cls-1" d="M5.82,234.43c6.56,2.19,15.22-.27,19.87-5.32,19.5-21.23,39-42.46,58.5-63.68-4.1,22.33-8.2,44.66-12.29,66.99-.95,5.16,4.98,8.2,9.2,8.52,5.52.41,13.13-1.27,16.64-5.98,23.86-32.03,47.73-64.06,71.59-96.08-3.08,13.6-6.17,27.19-9.25,40.79-1.16,5.13,5.15,8.22,9.2,8.52,6.16.46,12.23-1.65,16.64-5.98,6.16-6.03,12.32-12.07,18.47-18.1-7.82,17.67-15.64,35.35-23.46,53.02-2.45,5.53,1.38,9.63,6.75,10.74,5.85,1.2,14.46-.59,18.26-5.65,16.19-21.61,32.39-43.21,48.58-64.82-2.23,15.46-4.47,30.93-6.7,46.39-.75,5.19,4.82,8.19,9.2,8.52,5.69.42,12.9-1.35,16.64-5.98,12.31-15.22,24.62-30.44,36.94-45.66l-3.26,51.06c-.81,12.65,20.91,9.32,25.85,2.54,4.45-6.12,8.9-12.24,13.34-18.36-4.34,16.18-8.67,32.36-13.01,48.55-1.62,6.04,6.84,8.51,11,8.52,6.05.03,13.63-2.64,16.55-8.41,20.85-41.26,41.7-82.52,62.55-123.77-5.53,40.45-11.05,80.89-16.58,121.34-.71,5.19,4.79,8.19,9.2,8.52,6.02.45,12.42-1.55,16.64-5.98,38.55-40.43,73.64-84.17,104.81-130.55-6.83,21.37-13.66,42.75-20.48,64.12-5.06,15.85-10.13,31.7-15.19,47.56-.79,2.46,1.46,5.39,3.29,6.61,2.56,1.71,6.54,2.26,9.51,1.92,6.96-.79,13.35-4.1,15.58-10.97,8.48-26.09,16.96-52.19,25.43-78.28.17,28.79.35,57.58.52,86.37.08,14.11,22.97,8.5,27.55.11,16.54-30.28,33.08-60.55,49.61-90.83,1.67,31.62,3.34,63.23,5.01,94.85.69,13.09,23.76,9.95,27.55.11,10.03-26.02,20.06-52.04,30.09-78.06-2.56,27.47-5.12,54.95-7.68,82.42-1.25,13.44,24.1,9.21,27.55.11,5.66-14.91,11.31-29.83,16.97-44.74-.47,5.89-.93,11.78-1.4,17.67-.41,5.21,4.55,8.17,9.2,8.52,6.13.45,12.27-1.63,16.64-5.98,44.47-44.3,81.89-95.88,110.18-151.92,7.96-15.77,15.18-31.91,21.68-48.34,5.75-14.55-22.38-13.61-26.71-2.66-22.48,56.88-53.84,110.08-93.11,156.94-2.27,2.71-4.57,5.39-6.89,8.05,2.02-25.54,4.04-51.09,6.06-76.63,1.06-13.45-24.08-9.25-27.55-.11-5.08,13.4-10.17,26.81-15.25,40.21,2.5-26.8,4.99-53.59,7.49-80.39,1.26-13.47-24.06-9.16-27.55-.11-14.07,36.51-28.14,73.01-42.22,109.52-1.37-25.99-2.75-51.99-4.12-77.98-.73-13.9-22.78-8.85-27.55-.11-15.83,28.97-31.65,57.94-47.48,86.92-.24-39.92-.48-79.84-.72-119.76,0-.72-.1-1.38-.25-2.01.12-.39.25-.77.37-1.16,5.06-15.85,10.13-31.7,15.19-47.56C600.96,2.54,591.97.02,588.05,0c-6.07-.03-13.62,2.64-16.55,8.41-33.03,65-73.28,126.18-120.13,182.06-3.61,4.31-7.27,8.58-10.96,12.82,7.28-53.27,14.55-106.54,21.83-159.82.84-6.14-6.19-8.5-11-8.52-6.05-.03-13.63,2.64-16.55,8.41-14.59,28.88-29.19,57.75-43.78,86.63-1.31-3.24-5.99-5.18-9.01-5.41-5.47-.4-13.2,1.25-16.64,5.98-8.95,12.32-17.9,24.63-26.85,36.95.99-15.58,1.99-31.16,2.98-46.74.83-12.94-20.71-8.88-25.85-2.54-11.09,13.7-22.17,27.41-33.26,41.11,2.42-16.76,4.84-33.52,7.26-50.28.75-5.19-4.82-8.19-9.2-8.52-5.53-.41-13.12,1.27-16.64,5.98-4.84,6.45-9.67,12.9-14.51,19.36,1.68-3.79,3.36-7.59,5.04-11.38,2.45-5.53-1.38-9.63-6.75-10.74-6.57-1.34-13.51,1.01-18.26,5.65-10.87,10.65-21.75,21.31-32.62,31.96,4.42-19.5,8.85-38.99,13.27-58.49,1.16-5.13-5.15-8.22-9.2-8.52-5.52-.41-13.13,1.27-16.64,5.98l-74.67,100.22c3.42-18.64,6.84-37.29,10.26-55.93.95-5.16-4.98-8.2-9.2-8.52-5.95-.44-12.53,1.5-16.64,5.98-30.46,33.16-60.92,66.31-91.38,99.47-4.33,4.71-2.52,10.84,3.44,12.83Z"/>
  </g>
</svg>